<svg xmlns="http://www.w3.org/2000/svg" width="1005.563" height="463.54" viewBox="0 0 942.715 434.569"><g transform="translate(99.31 -308.897)"><rect width="942.715" height="434.569" x="-99.31" y="308.897" rx="137.958" ry="137.958" style="color:#000;clip-rule:nonzero;display:inline;overflow:visible;visibility:visible;opacity:1;isolation:auto;mix-blend-mode:normal;color-interpolation:sRGB;color-interpolation-filters:linearRGB;solid-color:#000;solid-opacity:1;fill:#fff;fill-opacity:1;fill-rule:nonzero;stroke:none;stroke-width:14;stroke-linecap:round;stroke-linejoin:round;stroke-miterlimit:4;stroke-dasharray:none;stroke-dashoffset:0;stroke-opacity:1;color-rendering:auto;image-rendering:auto;shape-rendering:auto;text-rendering:auto;enable-background:accumulate"/><path d="M80.897 413.768c-25.25 0-35.32 3.288-37.875 7.875-29.112 52.266-27.84 145.045-30 233.25-.14 5.748 1.625 10.875 4.875 15.375s7.625 6.75 13.125 6.75h115.5c4.5 0 7.75-6 9.75-18 .141-1.175.255-2.34.37-3.506-.341-.334-.684-.663-1.022-1.002-10.953-11.451-19.178-28.977-24.678-49.117H89.147c.31-63.096 35.215-173.388 30-183.75-2.36-4.69-12.75-7.875-38.25-7.875z" style="color:#000;font-style:normal;font-variant:normal;font-weight:400;font-stretch:normal;font-size:medium;line-height:125%;font-family:&quot;Lilita One&quot;;-inkscape-font-specification:&quot;Lilita One&quot;;text-indent:0;text-align:center;text-decoration:none;text-decoration-line:none;text-decoration-style:solid;text-decoration-color:#000;letter-spacing:normal;word-spacing:normal;text-transform:none;direction:ltr;block-progression:tb;writing-mode:lr-tb;baseline-shift:baseline;text-anchor:middle;white-space:normal;clip-rule:nonzero;visibility:visible;isolation:auto;mix-blend-mode:normal;color-interpolation:sRGB;color-interpolation-filters:linearRGB;solid-color:#000;solid-opacity:1;fill:#d900bd;fill-opacity:1;fill-rule:nonzero;stroke:none;stroke-width:14;stroke-linecap:round;stroke-linejoin:round;stroke-miterlimit:4;stroke-dasharray:none;stroke-dashoffset:0;stroke-opacity:1;color-rendering:auto;image-rendering:auto;shape-rendering:auto;text-rendering:auto" transform="translate(0 -8.485)"/><path d="M244.53 380.5c-27.607-.156-56.287 10.549-81.465 32.768-22.25 22.75-33.374 74.25-33.374 118.5 0 44 11 91.5 33 114.5 42.5 42.628 107.664 46.002 156.124 1.5 5.443-5.443 10.215-12.42 14.327-20.504-12.781-26.854-19.178-65.348-19.178-99.832 0-29.206 6.182-67.921 18.537-95.606-3.771-7.518-8.08-13.967-12.936-18.933-20.89-21.221-47.427-32.237-75.035-32.393zm-2.476 71.572c7.115-.054 14.235 4.484 20.886 15.196 8.25 10.75 12.375 44.125 12.375 64.125s-4 49.375-12 60.125c-14.954 20.858-24.012 22.275-45.125.375-7.75-10.75-11.625-40-11.625-59.75 0-20 4-53.5 12-64.5 7.366-9.55 15.425-15.51 23.489-15.57z" style="color:#000;font-style:normal;font-variant:normal;font-weight:400;font-stretch:normal;font-size:medium;line-height:125%;font-family:&quot;Lilita One&quot;;-inkscape-font-specification:&quot;Lilita One&quot;;text-indent:0;text-align:center;text-decoration:none;text-decoration-line:none;text-decoration-style:solid;text-decoration-color:#000;letter-spacing:normal;word-spacing:normal;text-transform:none;direction:ltr;block-progression:tb;writing-mode:lr-tb;baseline-shift:baseline;text-anchor:middle;white-space:normal;clip-rule:nonzero;visibility:visible;isolation:auto;mix-blend-mode:normal;color-interpolation:sRGB;color-interpolation-filters:linearRGB;solid-color:#000;solid-opacity:1;fill:#04b934;fill-opacity:1;fill-rule:nonzero;stroke:none;stroke-width:14;stroke-linecap:round;stroke-linejoin:round;stroke-miterlimit:4;stroke-dasharray:none;stroke-dashoffset:0;stroke-opacity:1;color-rendering:auto;image-rendering:auto;shape-rendering:auto;text-rendering:auto" transform="translate(0 -8.485)"/><path d="M439.599 370.851c-28.726.308-55.88 10.71-83.01 36.08-21.75 24.25-32.625 79.75-32.625 118.5 0 45.5 11.125 98 33.375 121.5 28.81 29.873 78.638 41.65 123.5 30.376 15.25-3.5 25.375-7 30.375-10.5l.281-22.08c-22.016-30.639-30.884-68.755-26.137-104.178l-1.52-.117c-4.75 0-10.75.625-18 1.875-7.25 1-10.874 3.25-10.874 6.75l-.75 51c.113 19.6-29.62 6.27-37.625-6.375-9.75-11-14.625-45-14.625-66s4.75-60.5 14.25-70.5c11.83-12.12 24.327-18.935 42.125-11.625 7 2 11.625 4 13.875 6 2.5 1.75 4.75 2.625 6.75 2.625 2.25 0 5.75-2.5 10.5-7.5s9-12.5 12.75-22.5c3.75-10.25 5.625-18.125 5.625-23.625s-.125-9.25-.375-11.25c-5.25-5.75-15-10.25-29.25-13.5-12.276-3.058-24.185-4.817-35.83-4.954-.93-.01-1.859-.011-2.785-.002zm134.629 175.844c-2.505 15.164 1.066 29.627 11.078 43.448a45.35 45.35 0 0 0 3.937 4.66l-.869-45.371c0-.992-5.7-1.903-14.146-2.737z" style="color:#000;font-style:normal;font-variant:normal;font-weight:400;font-stretch:normal;font-size:medium;line-height:125%;font-family:&quot;Lilita One&quot;;-inkscape-font-specification:&quot;Lilita One&quot;;text-indent:0;text-align:center;text-decoration:none;text-decoration-line:none;text-decoration-style:solid;text-decoration-color:#000;letter-spacing:normal;word-spacing:normal;text-transform:none;direction:ltr;block-progression:tb;writing-mode:lr-tb;baseline-shift:baseline;text-anchor:middle;white-space:normal;clip-rule:nonzero;visibility:visible;isolation:auto;mix-blend-mode:normal;color-interpolation:sRGB;color-interpolation-filters:linearRGB;solid-color:#000;solid-opacity:1;fill:#0081ff;fill-opacity:1;fill-rule:nonzero;stroke:none;stroke-width:14;stroke-linecap:round;stroke-linejoin:round;stroke-miterlimit:4;stroke-dasharray:none;stroke-dashoffset:0;stroke-opacity:1;color-rendering:auto;image-rendering:auto;shape-rendering:auto;text-rendering:auto" transform="translate(0 -8.485)"/><path d="M611.181 680.767c-35 0-63.625-11.5-85.875-34.5-43.911-53.157-44.741-133.713.375-181 22.5-22.75 51.375-34.125 86.625-34.125 35.5 0 64.125 11.25 85.875 33.75 43.174 54.37 44.803 136.412-.75 182.875-22.25 22-51 33-86.25 33zm.375-177.625c-12 0-22.125 5.5-30.375 16.5-15.98 25.933-16.547 49.926-.375 72.25 7.75 10.5 17.875 15.75 30.375 15.75 12.75 0 23-5.375 30.75-16.125 16.562-22.943 16.071-50.624-.375-72.25-8-10.75-18-16.125-30-16.125z" style="color:#000;font-style:normal;font-variant:normal;font-weight:400;font-stretch:normal;font-size:medium;line-height:125%;font-family:&quot;Lilita One&quot;;-inkscape-font-specification:&quot;Lilita One&quot;;text-indent:0;text-align:center;text-decoration:none;text-decoration-line:none;text-decoration-style:solid;text-decoration-color:#000;letter-spacing:normal;word-spacing:normal;text-transform:none;direction:ltr;block-progression:tb;writing-mode:lr-tb;baseline-shift:baseline;text-anchor:middle;white-space:normal;clip-rule:nonzero;visibility:visible;isolation:auto;mix-blend-mode:normal;color-interpolation:sRGB;color-interpolation-filters:linearRGB;solid-color:#000;solid-opacity:1;fill:#f80;fill-opacity:1;fill-rule:nonzero;stroke:none;stroke-width:14;stroke-linecap:round;stroke-linejoin:round;stroke-miterlimit:4;stroke-dasharray:none;stroke-dashoffset:0;stroke-opacity:1;color-rendering:auto;image-rendering:auto;shape-rendering:auto;text-rendering:auto" transform="translate(0 -8.485)"/></g></svg>